<svg xmlns="http://www.w3.org/2000/svg" viewBox="0 0 512 512">
  <rect width="512" height="512" rx="64" fill="#0B1220"/>
  <circle cx="256" cy="256" r="200" fill="#22C55E" opacity="0.12"/>
  <g transform="translate(256,280) scale(3.2)" fill="#22C55E">
    <path d="M19 44l2 2 1-1-1-2-2-1-2 2h2zm-4-22c0 5 3 11 7 14s6 7 6 12l-2 4h14l-1-3c-1-5 1-10 6-15 4-4 6-9 5-14-2-9-13-9-15-2 0 3-2 6-4 6s-3-2-2-5c1-4-2-7-5-7-5 1-9 5-9 10z" stroke="#16a34a" stroke-width="0.5"/>
  </g>
  <text x="256" y="460" text-anchor="middle" font-family="system-ui,sans-serif" font-size="32" font-weight="700" fill="#F8FAFC">♞</text>
</svg>
